<svg width="150" height="138" viewBox="0 0 150 138" fill="none" xmlns="http://www.w3.org/2000/svg">
<path d="M149 69C149 106.479 115.949 137 75 137C34.0508 137 1 106.479 1 69C1 31.5215 34.0508 1 75 1C115.949 1 149 31.5215 149 69Z" fill="white" stroke="black" stroke-width="2"/>
<path d="M39 84L59 35L69.5 63M80 91L69.5 63M69.5 63L86 14L111 73" stroke="black"/>
<path d="M34.12 116H31.24V98.36H34.12V116ZM50.6716 103.4L48.4756 105.56H42.3916V113.84H49.9516V116H42.3916C41.6956 116 41.0956 115.76 40.5916 115.28C40.1116 114.776 39.8716 114.176 39.8716 113.48V105.92C39.8716 105.224 40.1116 104.636 40.5916 104.156C41.0956 103.652 41.6956 103.4 42.3916 103.4H50.6716ZM65.7958 116H55.7158C55.0198 116 54.4198 115.76 53.9158 115.28C53.4358 114.776 53.1958 114.176 53.1958 113.48V105.92C53.1958 105.224 53.4358 104.636 53.9158 104.156C54.4198 103.652 55.0198 103.4 55.7158 103.4H63.2758C63.9718 103.4 64.5598 103.652 65.0398 104.156C65.5438 104.636 65.7958 105.224 65.7958 105.92V108.44L63.2758 110.96H56.0758L58.2358 108.8H63.2758V105.56H55.7158V113.84H65.7958V116ZM80.7344 100.88H75.5144V116H72.6344V100.88H67.4144V98.36H80.7344V100.88ZM93.5102 108.44H90.9902V105.56H85.9502V116H83.4302V103.4H85.9502V105.2L87.7502 103.4H90.9902C91.6862 103.4 92.2742 103.652 92.7542 104.156C93.2582 104.636 93.5102 105.224 93.5102 105.92V108.44ZM99.9775 101.24H97.4575V98.36H99.9775V101.24ZM99.9775 116H97.4575V105.2L99.9775 102.68V116ZM117.616 113.48C117.616 114.176 117.364 114.776 116.86 115.28C116.38 115.76 115.792 116 115.096 116H107.536V123.56H105.016V103.4H107.536V105.2L109.336 103.4H115.096C115.792 103.4 116.38 103.652 116.86 104.156C117.364 104.636 117.616 105.224 117.616 105.92V113.48ZM115.096 113.84V105.56H107.536V115.64L109.336 113.84H115.096Z" fill="black"/>
</svg>
